<svg xmlns="http://www.w3.org/2000/svg" width="779" height="798" viewBox="0 0 779 798" version="1.1"><path d="M 539.274 67.352 C 514.950 81.183, 495.054 92.725, 495.059 93 C 495.065 93.275, 533.976 116.225, 581.529 144 L 667.988 194.500 667.744 247.471 L 667.500 300.442 532 377.237 L 396.500 454.032 395.867 460.266 C 395.519 463.695, 395.181 488.036, 395.117 514.357 C 395.024 552.289, 395.259 562.106, 396.250 561.695 C 396.938 561.410, 479.175 514.873, 579 458.280 L 760.500 355.383 761.233 298.942 C 761.636 267.899, 761.861 220.465, 761.733 193.534 L 761.500 144.569 674 93.308 C 625.875 65.115, 585.825 42.083, 585 42.126 C 584.175 42.169, 563.599 53.520, 539.274 67.352" stroke="none" fill="#becbf5" fill-rule="evenodd"/><path d="M 125.500 90.404 L 34.500 142.500 33.764 221.500 C 33.359 264.950, 33.134 311.055, 33.264 323.956 L 33.500 347.412 77.500 373.508 C 112.559 394.301, 121.638 399.288, 122.180 398.052 C 122.554 397.198, 122.891 381.425, 122.931 363 C 122.970 344.575, 123.300 300.166, 123.664 264.313 L 124.327 199.126 170.325 172.923 C 205.675 152.786, 216.691 146.944, 217.911 147.684 C 245.986 164.716, 484.638 305.333, 485.470 305.333 C 486.761 305.333, 575.713 255.443, 577.695 253.607 C 578.590 252.778, 533.880 225.853, 399.845 146.500 C 301.370 88.200, 219.832 40.007, 218.649 39.404 C 216.759 38.439, 205.533 44.586, 125.500 90.404" stroke="none" fill="#5c7ee5" fill-rule="evenodd"/><path d="M 216 461.330 L 216 671.700 307.130 723.398 C 357.251 751.832, 398.784 774.962, 399.425 774.798 C 400.065 774.634, 440.082 751.550, 488.351 723.500 L 576.113 672.500 575.433 621 C 575.059 592.675, 574.627 569.356, 574.474 569.181 C 574.321 569.005, 535.449 591.408, 488.093 618.963 C 410.377 664.185, 401.771 668.952, 399.745 667.904 C 392.855 664.339, 312.288 618.474, 311.201 617.497 C 310.152 616.555, 309.767 586.268, 309.201 460.033 L 308.500 303.735 266 279.302 C 242.625 265.865, 221.813 253.990, 219.750 252.915 L 216 250.959 216 461.330" stroke="none" fill="#455fac" fill-rule="evenodd"/></svg>