<?xml version="1.0" standalone="no"?>
<!DOCTYPE svg PUBLIC "-//W3C//DTD SVG 20010904//EN"
 "http://www.w3.org/TR/2001/REC-SVG-20010904/DTD/svg10.dtd">
<svg version="1.0" xmlns="http://www.w3.org/2000/svg"
 width="1500.000000pt" height="1500.000000pt" viewBox="0 0 1500.000000 1500.000000"
 preserveAspectRatio="xMidYMid meet">

<g transform="translate(0.000000,1500.000000) scale(0.100000,-0.100000)"
fill="#000000" stroke="none">
<path d="M7105 14884 c-33 -2 -141 -11 -240 -19 -1971 -170 -3769 -1109 -5046
-2636 -899 -1074 -1475 -2399 -1653 -3799 -43 -339 -50 -467 -50 -930 0 -463
7 -591 50 -930 236 -1858 1159 -3542 2605 -4751 1074 -899 2399 -1475 3799
-1653 339 -43 467 -50 930 -50 463 0 591 7 930 50 1858 236 3542 1159 4751
2605 899 1074 1475 2399 1653 3799 43 339 50 467 50 930 0 463 -7 591 -50 930
-236 1858 -1159 3542 -2605 4751 -990 829 -2204 1389 -3474 1604 -454 77 -679
96 -1180 99 -225 2 -437 2 -470 0z m98 -4774 c988 -585 1797 -1067 1797 -1070
0 -6 -921 -530 -932 -530 -3 0 -610 358 -1349 795 l-1343 795 -457 -261 -457
-260 -6 -162 c-3 -89 -8 -540 -12 -1002 -3 -462 -7 -841 -9 -843 -1 -1 -203
116 -448 260 l-446 263 6 755 c3 415 8 878 12 1027 l6 273 900 515 c556 318
908 513 921 511 11 -1 829 -481 1817 -1066z m2755 525 l872 -510 -3 -1054 -2
-1054 -1824 -1034 c-1003 -568 -1828 -1033 -1834 -1033 -7 0 -8 87 -4 278 4
152 7 394 7 537 l0 260 1360 770 1360 770 0 530 -1 530 -864 505 c-475 278
-860 509 -855 514 21 21 887 506 900 503 9 -1 408 -231 888 -512z m-4117
-1840 l464 -265 5 -1566 5 -1566 455 -259 c250 -142 461 -256 468 -254 7 3
394 227 860 497 465 271 852 494 859 496 11 3 13 -92 11 -518 l-3 -522 -875
-509 c-481 -280 -883 -508 -892 -507 -10 2 -422 232 -916 513 l-899 510 -7
179 c-6 186 -9 4036 -2 4036 2 0 212 -119 467 -265z"/>
</g>
</svg>
