<?xml version="1.0" standalone="no"?>
<!DOCTYPE svg PUBLIC "-//W3C//DTD SVG 20010904//EN"
 "http://www.w3.org/TR/2001/REC-SVG-20010904/DTD/svg10.dtd">
<svg version="1.0" xmlns="http://www.w3.org/2000/svg"
 width="1500.000000pt" height="1501.000000pt" viewBox="0 0 1500.000000 1501.000000"
 preserveAspectRatio="xMidYMid meet">

<g transform="translate(0.000000,1501.000000) scale(0.100000,-0.100000)"
fill="#000000" stroke="none">
<path d="M5810 6536 l0 -2094 910 -516 911 -516 879 511 880 512 0 514 c0 283
-4 513 -8 511 -5 -1 -391 -226 -858 -498 -467 -272 -856 -494 -865 -494 -8 0
-221 116 -472 259 l-457 260 -2 1564 -3 1564 -450 258 c-247 142 -453 259
-457 259 -5 0 -8 -942 -8 -2094z"/>
</g>
</svg>
